<svg xmlns="http://www.w3.org/2000/svg" width="1280" height="720" viewBox="0 0 1280 720" role="img" aria-labelledby="cover-title cover-desc"><title id="cover-title">QuickKOL editorial cover</title><desc id="cover-desc">A purple editorial cover with three different comment bubbles for questions, experience and purchase intent.</desc><rect width="1280" height="720" fill="#311b66"/>
    <text x="60" y="58" fill="#a8c8ff" font-family="Arial, Helvetica, sans-serif" font-size="17" font-weight="700" letter-spacing="3">QUICKKOL / AUDIENCE + ANALYTICS</text><text x="60" y="145" fill="#ffffff" font-family="Arial, Helvetica, sans-serif" font-size="64" font-weight="800" letter-spacing="-2"><tspan x="60" dy="0">READ THE</tspan><tspan x="60" dy="65.28">CONVERSATION.</tspan></text>
    <g font-family="Arial, Helvetica, sans-serif" font-weight="700"><g transform="translate(690 75)"><path d="M0 0h360a24 24 0 0 1 24 24v72a24 24 0 0 1-24 24H90l-48 40 12-40H24A24 24 0 0 1 0 96Z" fill="#ffdb55"/><text x="34" y="70" font-size="24" fill="#271b36">“DOES IT WORK WITH…?”</text></g><g transform="translate(790 260)"><path d="M0 0h390a24 24 0 0 1 24 24v82a24 24 0 0 1-24 24H68l-22 42-8-42H24A24 24 0 0 1 0 106Z" fill="#ff8a70"/><text x="34" y="76" font-size="22" fill="#271b36">“I USED IT FOR 3 MONTHS.”</text></g><g transform="translate(630 455)"><path d="M0 0h300a22 22 0 0 1 22 22v66a22 22 0 0 1-22 22H72l-40 34 10-34H22A22 22 0 0 1 0 88Z" fill="#8fe0c0"/><text x="32" y="64" font-size="22" fill="#271b36">“WHERE CAN I BUY?”</text></g></g>
    <g transform="translate(60 470)" font-family="Arial, Helvetica, sans-serif"><text y="0" fill="#beaeea" font-size="17" font-weight="700">CODE ONE PRIMARY INTENT</text><text y="48" fill="white" font-size="21">QUESTION  /  EXPERIENCE</text><text y="82" fill="white" font-size="21">PURCHASE  /  OBJECTION</text></g><text x="60" y="674" fill="#b8acd5" font-family="Arial, Helvetica, sans-serif" font-size="14" font-weight="700" letter-spacing="1.5">QUICKKOL STRATEGY TEAM</text>
  </svg>