<svg xmlns="http://www.w3.org/2000/svg" width="1280" height="720" viewBox="0 0 1280 720" role="img" aria-labelledby="cover-title cover-desc"><title id="cover-title">QuickKOL editorial cover</title><desc id="cover-desc">A black live-production cover with a bright blue waveform and red event markers.</desc><rect width="1280" height="720" fill="#090d14"/>
    <circle cx="90" cy="80" r="18" fill="#ff3d49"/><text x="122" y="90" fill="#ff5963" font-family="Arial, Helvetica, sans-serif" font-size="28" font-weight="800">LIVE</text><text x="60" y="180" fill="#ffffff" font-family="Arial, Helvetica, sans-serif" font-size="66" font-weight="800" letter-spacing="-2"><tspan x="60" dy="0">RUN LIVE.</tspan><tspan x="60" dy="67.32000000000001">RECORD FACTS.</tspan></text>
    <path d="M60 475h80l24-70 42 140 38-95 42 45 36-145 42 220 42-108 42 30h80l28-70 38 118 36-50 30 25h90l38-95 42 140 38-75 42 20h96" fill="none" stroke="#47a0ff" stroke-width="8" stroke-linejoin="round"/>
    <g font-family="Arial, Helvetica, sans-serif" font-weight="700"><circle cx="162" cy="405" r="14" fill="#ff3d49"/><text x="140" y="620" fill="#a9b3c3" font-size="16">REHEARSE</text><circle cx="564" cy="422" r="14" fill="#ff3d49"/><text x="530" y="620" fill="#a9b3c3" font-size="16">GO LIVE</text><circle cx="1018" cy="405" r="14" fill="#ff3d49"/><text x="985" y="620" fill="#a9b3c3" font-size="16">REVIEW</text></g><text x="60" y="674" fill="#7f8b9e" font-family="Arial, Helvetica, sans-serif" font-size="14" font-weight="700" letter-spacing="1.5">QUICKKOL STRATEGY TEAM</text>
  </svg>