<svg xmlns="http://www.w3.org/2000/svg" width="1280" height="720" viewBox="0 0 1280 720" role="img" aria-labelledby="cover-title cover-desc"><title id="cover-title">QuickKOL editorial cover</title><desc id="cover-desc">A warm white invoice-style creator quote broken into production, rights, raw files and exclusivity.</desc><rect width="1280" height="720" fill="#ffffff"/>
    <rect x="50" y="45" width="1180" height="630" rx="28" fill="#f7f2e9" stroke="#17294a" stroke-width="4"/><rect x="50" y="45" width="1180" height="108" rx="28" fill="#17294a"/>
    <text x="82" y="88" fill="#78b0ff" font-family="Arial, Helvetica, sans-serif" font-size="17" font-weight="700" letter-spacing="3">QUICKKOL / RATES + RIGHTS</text><text x="82" y="132" fill="white" font-family="Arial, Helvetica, sans-serif" font-size="34" font-weight="800">CREATOR QUOTE / SCOPE BREAKDOWN</text>
    <g font-family="Arial, Helvetica, sans-serif"><text x="82" y="218" font-size="20" fill="#667085">DO NOT COMPARE TOTALS UNTIL THESE LINES MATCH.</text><g transform="translate(82 255)"><text y="34" font-size="15" font-weight="700" fill="#247df2">01</text><text x="64" y="34" font-size="22" font-weight="700" fill="#101828">PRODUCTION</text><text x="1040" y="34" text-anchor="end" font-size="22" font-weight="800" fill="#101828">18,000</text><path d="M0 58H1040" stroke="#d7d2c8"/></g><g transform="translate(82 330)"><text y="34" font-size="15" font-weight="700" fill="#247df2">02</text><text x="64" y="34" font-size="22" font-weight="700" fill="#101828">PAID USE / 3 MO</text><text x="1040" y="34" text-anchor="end" font-size="22" font-weight="800" fill="#101828">7,500</text><path d="M0 58H1040" stroke="#d7d2c8"/></g><g transform="translate(82 405)"><text y="34" font-size="15" font-weight="700" fill="#247df2">03</text><text x="64" y="34" font-size="22" font-weight="700" fill="#101828">RAW FILES</text><text x="1040" y="34" text-anchor="end" font-size="22" font-weight="800" fill="#101828">2,000</text><path d="M0 58H1040" stroke="#d7d2c8"/></g><g transform="translate(82 480)"><text y="34" font-size="15" font-weight="700" fill="#247df2">04</text><text x="64" y="34" font-size="22" font-weight="700" fill="#101828">EXCLUSIVITY</text><text x="1040" y="34" text-anchor="end" font-size="22" font-weight="800" fill="#101828">4,000</text><path d="M0 58H1040" stroke="#d7d2c8"/></g><text x="82" y="622" font-size="18" font-weight="700" fill="#667085">CURRENCY · TAX · VALIDITY · PAYMENT</text></g>
  </svg>