<svg xmlns="http://www.w3.org/2000/svg" width="1280" height="720" viewBox="0 0 1280 720" role="img"><title>QuickKOL editorial cover</title><desc>A black editorial filmstrip cover representing file-level raw-footage rights.</desc><rect width="1280" height="720" fill="#101419"/><text x="60" y="58" font-family="Arial, Helvetica, sans-serif" font-size="16" font-weight="700" letter-spacing="3" fill="#7fb3ff">QUICKKOL / RATES + RIGHTS</text><text x="60" y="150" font-family="Arial, Helvetica, sans-serif" font-size="66" font-weight="800" letter-spacing="-2" fill="#ffffff">DEFINE THE<tspan x="60" dy="68">RAW RIGHTS.</tspan></text><g transform="translate(600 130)"><rect width="590" height="360" rx="28" fill="#eef1f5"/><g><rect x="34" y="35" width="118" height="205" rx="14" fill="#ff826f"/><circle cx="93" cy="100" r="30" fill="#101419" opacity=".72"/><rect x="60" y="153" width="66" height="42" rx="8" fill="#ffffff" opacity=".75"/><rect x="172" y="35" width="118" height="205" rx="14" fill="#8bdcbb"/><circle cx="231" cy="100" r="30" fill="#101419" opacity=".72"/><rect x="198" y="153" width="66" height="42" rx="8" fill="#ffffff" opacity=".75"/><rect x="310" y="35" width="118" height="205" rx="14" fill="#7aaeff"/><circle cx="369" cy="100" r="30" fill="#101419" opacity=".72"/><rect x="336" y="153" width="66" height="42" rx="8" fill="#ffffff" opacity=".75"/><rect x="448" y="35" width="118" height="205" rx="14" fill="#ffd15b"/><circle cx="507" cy="100" r="30" fill="#101419" opacity=".72"/><rect x="474" y="153" width="66" height="42" rx="8" fill="#ffffff" opacity=".75"/></g><path d="M34 280h522" stroke="#9ba6b5" stroke-width="3"/><circle cx="120" cy="280" r="18" fill="#247df2"/><circle cx="420" cy="280" r="18" fill="#ff826f"/><text x="34" y="330" font-family="Arial, Helvetica, sans-serif" font-size="17" font-weight="700" fill="#182c50">FILE · USE · MARKET · TERM · DELETE</text></g><text x="60" y="675" font-family="Arial, Helvetica, sans-serif" font-size="14" font-weight="700" letter-spacing="1.5" fill="#8994a4">QUICKKOL STRATEGY TEAM</text></svg>